<mxfile host="app.diagrams.net" agent="Mozilla/5.0 (Macintosh; Intel Mac OS X 10.15; rv:141.0) Gecko/20100101 Firefox/141.0" version="28.0.7" pages="2">
  <diagram name="Page-1" id="mOpYmfrOX8BCGQNvRRza">
    <mxGraphModel dx="795" dy="457" grid="1" gridSize="10" guides="0" tooltips="1" connect="1" arrows="1" fold="1" page="1" pageScale="1" pageWidth="850" pageHeight="1100" math="0" shadow="0">
      <root>
        <mxCell id="0" />
        <mxCell id="1" parent="0" />
        <mxCell id="ZoWPlgdxUxHB37sIgow8-2" value="" style="group;rotation=-90;horizontal=1;" vertex="1" connectable="0" parent="1">
          <mxGeometry x="435" y="250" width="90" height="100" as="geometry" />
        </mxCell>
        <mxCell id="ZoWPlgdxUxHB37sIgow8-3" value="" style="rounded=0;html=1;rotation=-90;" vertex="1" parent="ZoWPlgdxUxHB37sIgow8-2">
          <mxGeometry x="5" y="-5" width="80" height="100" as="geometry" />
        </mxCell>
        <mxCell id="ZoWPlgdxUxHB37sIgow8-4" value="" style="endArrow=none;html=1;rounded=0;" edge="1" parent="ZoWPlgdxUxHB37sIgow8-2">
          <mxGeometry width="50" height="50" relative="1" as="geometry">
            <mxPoint x="85" y="95" as="sourcePoint" />
            <mxPoint x="85" y="85" as="targetPoint" />
          </mxGeometry>
        </mxCell>
        <mxCell id="ZoWPlgdxUxHB37sIgow8-5" value="" style="endArrow=none;html=1;rounded=0;" edge="1" parent="ZoWPlgdxUxHB37sIgow8-2">
          <mxGeometry width="50" height="50" relative="1" as="geometry">
            <mxPoint x="65" y="95" as="sourcePoint" />
            <mxPoint x="65" y="85" as="targetPoint" />
          </mxGeometry>
        </mxCell>
        <mxCell id="ZoWPlgdxUxHB37sIgow8-6" value="" style="endArrow=none;html=1;rounded=0;" edge="1" parent="ZoWPlgdxUxHB37sIgow8-2">
          <mxGeometry width="50" height="50" relative="1" as="geometry">
            <mxPoint x="45" y="95" as="sourcePoint" />
            <mxPoint x="45" y="85" as="targetPoint" />
          </mxGeometry>
        </mxCell>
        <mxCell id="ZoWPlgdxUxHB37sIgow8-7" value="" style="endArrow=none;html=1;rounded=0;" edge="1" parent="ZoWPlgdxUxHB37sIgow8-2">
          <mxGeometry width="50" height="50" relative="1" as="geometry">
            <mxPoint x="25" y="95" as="sourcePoint" />
            <mxPoint x="25" y="85" as="targetPoint" />
          </mxGeometry>
        </mxCell>
        <mxCell id="ZoWPlgdxUxHB37sIgow8-8" value="" style="endArrow=none;html=1;rounded=0;" edge="1" parent="ZoWPlgdxUxHB37sIgow8-2">
          <mxGeometry width="50" height="50" relative="1" as="geometry">
            <mxPoint x="5" y="95" as="sourcePoint" />
            <mxPoint x="5" y="85" as="targetPoint" />
          </mxGeometry>
        </mxCell>
        <mxCell id="ZoWPlgdxUxHB37sIgow8-9" value="1 Vin" style="text;html=1;align=left;verticalAlign=middle;rounded=0;fontSize=10;labelPosition=right;verticalLabelPosition=middle;rotation=-90;" vertex="1" parent="ZoWPlgdxUxHB37sIgow8-2">
          <mxGeometry x="5" y="85" as="geometry" />
        </mxCell>
        <mxCell id="ZoWPlgdxUxHB37sIgow8-10" value="2 Vout" style="text;html=1;align=left;verticalAlign=middle;rounded=0;fontSize=10;labelPosition=right;verticalLabelPosition=middle;rotation=-90;" vertex="1" parent="ZoWPlgdxUxHB37sIgow8-2">
          <mxGeometry x="25" y="85" as="geometry" />
        </mxCell>
        <mxCell id="ZoWPlgdxUxHB37sIgow8-11" value="3 GND" style="text;html=1;align=left;verticalAlign=middle;rounded=0;fontSize=10;labelPosition=right;verticalLabelPosition=middle;rotation=-90;" vertex="1" parent="ZoWPlgdxUxHB37sIgow8-2">
          <mxGeometry x="45" y="85" as="geometry" />
        </mxCell>
        <mxCell id="ZoWPlgdxUxHB37sIgow8-12" value="4 FB" style="text;html=1;align=left;verticalAlign=middle;rounded=0;fontSize=10;labelPosition=right;verticalLabelPosition=middle;rotation=-90;" vertex="1" parent="ZoWPlgdxUxHB37sIgow8-2">
          <mxGeometry x="65" y="85" as="geometry" />
        </mxCell>
        <mxCell id="ZoWPlgdxUxHB37sIgow8-13" value="5 ON&#39;" style="text;html=1;align=left;verticalAlign=middle;rounded=0;fontSize=10;labelPosition=right;verticalLabelPosition=middle;rotation=-90;" vertex="1" parent="ZoWPlgdxUxHB37sIgow8-2">
          <mxGeometry x="85" y="85" as="geometry" />
        </mxCell>
        <mxCell id="DSzJjhLjSaE3BOneECKD-147" value="LM2596ADJ" style="text;html=1;align=center;verticalAlign=middle;whiteSpace=wrap;rounded=0;fontFamily=Helvetica;fontSize=11;fontColor=default;labelBackgroundColor=default;" vertex="1" parent="ZoWPlgdxUxHB37sIgow8-2">
          <mxGeometry x="15" y="10" width="60" height="30" as="geometry" />
        </mxCell>
        <mxCell id="DSzJjhLjSaE3BOneECKD-121" style="edgeStyle=orthogonalEdgeStyle;shape=connector;rounded=0;jumpStyle=arc;orthogonalLoop=1;jettySize=auto;html=1;exitX=1;exitY=1;exitDx=0;exitDy=0;exitPerimeter=0;strokeColor=default;align=center;verticalAlign=middle;fontFamily=Helvetica;fontSize=11;fontColor=default;labelBackgroundColor=default;endArrow=none;endFill=0;entryX=0.5;entryY=0;entryDx=0;entryDy=0;entryPerimeter=0;" edge="1" parent="1" source="DSzJjhLjSaE3BOneECKD-67" target="DSzJjhLjSaE3BOneECKD-75">
          <mxGeometry relative="1" as="geometry">
            <mxPoint x="560.3333333333333" y="400" as="targetPoint" />
            <Array as="points">
              <mxPoint x="560" y="400" />
            </Array>
          </mxGeometry>
        </mxCell>
        <mxCell id="DSzJjhLjSaE3BOneECKD-67" value="" style="pointerEvents=1;verticalLabelPosition=bottom;shadow=0;dashed=0;align=center;html=1;verticalAlign=top;shape=mxgraph.electrical.inductors.inductor_3;fontFamily=Helvetica;fontSize=11;fontColor=default;labelBackgroundColor=default;" vertex="1" parent="1">
          <mxGeometry x="460" y="390" width="100" height="10" as="geometry" />
        </mxCell>
        <mxCell id="DSzJjhLjSaE3BOneECKD-125" style="edgeStyle=orthogonalEdgeStyle;shape=connector;rounded=0;jumpStyle=arc;orthogonalLoop=1;jettySize=auto;html=1;exitX=1;exitY=0.5;exitDx=0;exitDy=0;exitPerimeter=0;strokeColor=default;align=center;verticalAlign=middle;fontFamily=Helvetica;fontSize=11;fontColor=default;labelBackgroundColor=default;endArrow=none;endFill=0;" edge="1" parent="1" source="DSzJjhLjSaE3BOneECKD-70">
          <mxGeometry relative="1" as="geometry">
            <mxPoint x="460.33333333333326" y="340" as="targetPoint" />
            <Array as="points">
              <mxPoint x="460" y="410" />
              <mxPoint x="460" y="410" />
            </Array>
          </mxGeometry>
        </mxCell>
        <mxCell id="DSzJjhLjSaE3BOneECKD-149" style="edgeStyle=orthogonalEdgeStyle;shape=connector;rounded=0;jumpStyle=arc;orthogonalLoop=1;jettySize=auto;html=1;exitX=0;exitY=0.5;exitDx=0;exitDy=0;exitPerimeter=0;strokeColor=default;align=center;verticalAlign=middle;fontFamily=Helvetica;fontSize=11;fontColor=default;labelBackgroundColor=default;endArrow=none;endFill=0;" edge="1" parent="1" source="DSzJjhLjSaE3BOneECKD-70">
          <mxGeometry relative="1" as="geometry">
            <mxPoint x="460" y="479.53846153846155" as="targetPoint" />
          </mxGeometry>
        </mxCell>
        <mxCell id="DSzJjhLjSaE3BOneECKD-70" value="" style="pointerEvents=1;fillColor=strokeColor;verticalLabelPosition=bottom;shadow=0;dashed=0;align=center;html=1;verticalAlign=top;shape=mxgraph.electrical.diodes.schottky_diode;fontFamily=Helvetica;fontSize=11;fontColor=default;labelBackgroundColor=default;rotation=-90;" vertex="1" parent="1">
          <mxGeometry x="430" y="430" width="60" height="20" as="geometry" />
        </mxCell>
        <mxCell id="DSzJjhLjSaE3BOneECKD-73" value="" style="pointerEvents=1;verticalLabelPosition=bottom;shadow=0;dashed=0;align=center;html=1;verticalAlign=top;shape=mxgraph.electrical.signal_sources.protective_earth;fontFamily=Helvetica;fontSize=11;fontColor=default;labelBackgroundColor=default;rotation=0;" vertex="1" parent="1">
          <mxGeometry x="300" y="500" width="20" height="20" as="geometry" />
        </mxCell>
        <mxCell id="DSzJjhLjSaE3BOneECKD-74" style="edgeStyle=orthogonalEdgeStyle;shape=connector;rounded=0;jumpStyle=arc;orthogonalLoop=1;jettySize=auto;html=1;exitX=0;exitY=0.5;exitDx=0;exitDy=0;exitPerimeter=0;entryX=0.5;entryY=0;entryDx=0;entryDy=0;entryPerimeter=0;strokeColor=default;align=center;verticalAlign=middle;fontFamily=Helvetica;fontSize=11;fontColor=default;labelBackgroundColor=default;endArrow=none;endFill=0;" edge="1" parent="1" target="DSzJjhLjSaE3BOneECKD-73">
          <mxGeometry relative="1" as="geometry">
            <mxPoint x="315.0000000000002" y="480" as="sourcePoint" />
          </mxGeometry>
        </mxCell>
        <mxCell id="DSzJjhLjSaE3BOneECKD-75" value="Vout" style="verticalLabelPosition=top;verticalAlign=bottom;shape=mxgraph.electrical.signal_sources.vdd;shadow=0;dashed=0;align=center;strokeWidth=1;fontSize=24;html=1;flipV=1;fontFamily=Helvetica;fontColor=default;labelBackgroundColor=none;rotation=0;" vertex="1" parent="1">
          <mxGeometry x="709.5" y="360" width="20" height="40" as="geometry" />
        </mxCell>
        <mxCell id="DSzJjhLjSaE3BOneECKD-77" value="" style="pointerEvents=1;verticalLabelPosition=bottom;shadow=0;dashed=0;align=center;html=1;verticalAlign=top;shape=mxgraph.electrical.capacitors.capacitor_1;rotation=90;" vertex="1" parent="1">
          <mxGeometry x="270" y="430" width="80" height="20" as="geometry" />
        </mxCell>
        <mxCell id="DSzJjhLjSaE3BOneECKD-78" value="Vin" style="verticalLabelPosition=top;verticalAlign=bottom;shape=mxgraph.electrical.signal_sources.vdd;shadow=0;dashed=0;align=center;strokeWidth=1;fontSize=24;html=1;flipV=1;fontFamily=Helvetica;fontColor=default;labelBackgroundColor=none;rotation=0;" vertex="1" parent="1">
          <mxGeometry x="300" y="360" width="20" height="40" as="geometry" />
        </mxCell>
        <mxCell id="DSzJjhLjSaE3BOneECKD-82" style="edgeStyle=orthogonalEdgeStyle;shape=connector;rounded=0;jumpStyle=arc;orthogonalLoop=1;jettySize=auto;html=1;exitX=0;exitY=0.5;exitDx=0;exitDy=0;exitPerimeter=0;strokeColor=default;align=center;verticalAlign=middle;fontFamily=Helvetica;fontSize=11;fontColor=default;labelBackgroundColor=default;endArrow=none;endFill=0;" edge="1" parent="1" source="DSzJjhLjSaE3BOneECKD-79">
          <mxGeometry relative="1" as="geometry">
            <mxPoint x="440" y="340" as="targetPoint" />
            <Array as="points">
              <mxPoint x="440" y="400" />
            </Array>
          </mxGeometry>
        </mxCell>
        <mxCell id="DSzJjhLjSaE3BOneECKD-79" value="" style="pointerEvents=1;verticalLabelPosition=bottom;shadow=0;dashed=0;align=center;html=1;verticalAlign=top;shape=mxgraph.electrical.capacitors.capacitor_1;rotation=90;" vertex="1" parent="1">
          <mxGeometry x="300" y="430" width="80" height="20" as="geometry" />
        </mxCell>
        <mxCell id="DSzJjhLjSaE3BOneECKD-81" style="edgeStyle=orthogonalEdgeStyle;shape=connector;rounded=0;jumpStyle=arc;orthogonalLoop=1;jettySize=auto;html=1;exitX=0;exitY=0.5;exitDx=0;exitDy=0;exitPerimeter=0;entryX=0;entryY=0.5;entryDx=0;entryDy=0;entryPerimeter=0;strokeColor=default;align=center;verticalAlign=middle;fontFamily=Helvetica;fontSize=11;fontColor=default;labelBackgroundColor=default;endArrow=none;endFill=0;" edge="1" parent="1" source="DSzJjhLjSaE3BOneECKD-79" target="DSzJjhLjSaE3BOneECKD-77">
          <mxGeometry relative="1" as="geometry" />
        </mxCell>
        <mxCell id="DSzJjhLjSaE3BOneECKD-83" value="" style="pointerEvents=1;verticalLabelPosition=bottom;shadow=0;dashed=0;align=center;html=1;verticalAlign=top;shape=mxgraph.electrical.signal_sources.protective_earth;fontFamily=Helvetica;fontSize=11;fontColor=default;labelBackgroundColor=default;rotation=0;" vertex="1" parent="1">
          <mxGeometry x="470" y="340" width="20" height="20" as="geometry" />
        </mxCell>
        <mxCell id="DSzJjhLjSaE3BOneECKD-84" value="" style="pointerEvents=1;verticalLabelPosition=bottom;shadow=0;dashed=0;align=center;html=1;verticalAlign=top;shape=mxgraph.electrical.signal_sources.protective_earth;fontFamily=Helvetica;fontSize=11;fontColor=default;labelBackgroundColor=default;rotation=0;" vertex="1" parent="1">
          <mxGeometry x="510" y="340" width="20" height="20" as="geometry" />
        </mxCell>
        <mxCell id="DSzJjhLjSaE3BOneECKD-86" value="" style="pointerEvents=1;verticalLabelPosition=bottom;shadow=0;dashed=0;align=center;html=1;verticalAlign=top;shape=mxgraph.electrical.capacitors.capacitor_1;rotation=90;" vertex="1" parent="1">
          <mxGeometry x="630" y="430" width="80" height="20" as="geometry" />
        </mxCell>
        <mxCell id="DSzJjhLjSaE3BOneECKD-89" value="10k" style="pointerEvents=1;verticalLabelPosition=bottom;shadow=0;dashed=0;align=center;html=1;verticalAlign=top;shape=mxgraph.electrical.resistors.resistor_1;fontFamily=Helvetica;fontSize=11;fontColor=default;labelBackgroundColor=none;fillColor=none;rotation=90;" vertex="1" parent="1">
          <mxGeometry x="700" y="420" width="40" height="10" as="geometry" />
        </mxCell>
        <mxCell id="DSzJjhLjSaE3BOneECKD-91" value="" style="verticalLabelPosition=bottom;shadow=0;dashed=0;align=center;html=1;verticalAlign=top;shape=mxgraph.electrical.opto_electronics.led_1;pointerEvents=1;fontFamily=Helvetica;fontSize=11;fontColor=default;labelBackgroundColor=default;rotation=90;" vertex="1" parent="1">
          <mxGeometry x="705" y="455" width="30" height="20" as="geometry" />
        </mxCell>
        <mxCell id="DSzJjhLjSaE3BOneECKD-93" value="" style="pointerEvents=1;verticalLabelPosition=bottom;shadow=0;dashed=0;align=center;html=1;verticalAlign=top;shape=mxgraph.electrical.resistors.potentiometer_1;fontFamily=Helvetica;fontSize=11;fontColor=default;labelBackgroundColor=none;fillColor=light-dark(#FF0080,#FF0080);rotation=90;flipH=1;" vertex="1" parent="1">
          <mxGeometry x="540" y="410" width="40" height="20" as="geometry" />
        </mxCell>
        <mxCell id="DSzJjhLjSaE3BOneECKD-102" value="" style="pointerEvents=1;verticalLabelPosition=bottom;shadow=0;dashed=0;align=center;html=1;verticalAlign=top;shape=mxgraph.electrical.capacitors.capacitor_1;rotation=90;" vertex="1" parent="1">
          <mxGeometry x="590" y="430" width="80" height="20" as="geometry" />
        </mxCell>
        <mxCell id="DSzJjhLjSaE3BOneECKD-126" style="edgeStyle=orthogonalEdgeStyle;shape=connector;rounded=0;jumpStyle=none;orthogonalLoop=1;jettySize=auto;html=1;exitX=0.5;exitY=0;exitDx=0;exitDy=0;exitPerimeter=0;strokeColor=default;align=center;verticalAlign=middle;fontFamily=Helvetica;fontSize=11;fontColor=default;labelBackgroundColor=default;endArrow=none;endFill=0;" edge="1" parent="1" source="DSzJjhLjSaE3BOneECKD-105">
          <mxGeometry relative="1" as="geometry">
            <mxPoint x="310" y="480" as="targetPoint" />
            <Array as="points">
              <mxPoint x="720" y="480" />
            </Array>
          </mxGeometry>
        </mxCell>
        <mxCell id="DSzJjhLjSaE3BOneECKD-105" value="" style="pointerEvents=1;verticalLabelPosition=bottom;shadow=0;dashed=0;align=center;html=1;verticalAlign=top;shape=mxgraph.electrical.signal_sources.protective_earth;fontFamily=Helvetica;fontSize=11;fontColor=default;labelBackgroundColor=default;rotation=0;" vertex="1" parent="1">
          <mxGeometry x="710" y="500" width="20" height="20" as="geometry" />
        </mxCell>
        <mxCell id="DSzJjhLjSaE3BOneECKD-116" value="" style="ellipse;whiteSpace=wrap;html=1;aspect=fixed;fontFamily=Helvetica;fontSize=11;fontColor=default;labelBackgroundColor=default;fillColor=light-dark(#000000,#FFFFFF);" vertex="1" parent="1">
          <mxGeometry x="338" y="398" width="4" height="4" as="geometry" />
        </mxCell>
        <mxCell id="DSzJjhLjSaE3BOneECKD-117" value="" style="ellipse;whiteSpace=wrap;html=1;aspect=fixed;fontFamily=Helvetica;fontSize=11;fontColor=default;labelBackgroundColor=default;fillColor=light-dark(#000000,#FFFFFF);" vertex="1" parent="1">
          <mxGeometry x="338" y="478" width="4" height="4" as="geometry" />
        </mxCell>
        <mxCell id="DSzJjhLjSaE3BOneECKD-118" value="" style="ellipse;whiteSpace=wrap;html=1;aspect=fixed;fontFamily=Helvetica;fontSize=11;fontColor=default;labelBackgroundColor=default;fillColor=light-dark(#000000,#FFFFFF);" vertex="1" parent="1">
          <mxGeometry x="308" y="478" width="4" height="4" as="geometry" />
        </mxCell>
        <mxCell id="DSzJjhLjSaE3BOneECKD-120" value="" style="ellipse;whiteSpace=wrap;html=1;aspect=fixed;fontFamily=Helvetica;fontSize=11;fontColor=default;labelBackgroundColor=default;fillColor=light-dark(#000000,#FFFFFF);" vertex="1" parent="1">
          <mxGeometry x="308" y="398" width="4" height="4" as="geometry" />
        </mxCell>
        <mxCell id="DSzJjhLjSaE3BOneECKD-127" style="edgeStyle=orthogonalEdgeStyle;shape=connector;rounded=0;jumpStyle=arc;orthogonalLoop=1;jettySize=auto;html=1;exitX=0;exitY=0.5;exitDx=0;exitDy=0;exitPerimeter=0;entryX=0.5;entryY=0;entryDx=0;entryDy=0;entryPerimeter=0;strokeColor=default;align=center;verticalAlign=middle;fontFamily=Helvetica;fontSize=11;fontColor=default;labelBackgroundColor=default;endArrow=none;endFill=0;" edge="1" parent="1" source="DSzJjhLjSaE3BOneECKD-89" target="DSzJjhLjSaE3BOneECKD-75">
          <mxGeometry relative="1" as="geometry" />
        </mxCell>
        <mxCell id="DSzJjhLjSaE3BOneECKD-128" style="edgeStyle=orthogonalEdgeStyle;shape=connector;rounded=0;jumpStyle=arc;orthogonalLoop=1;jettySize=auto;html=1;exitX=0;exitY=0.54;exitDx=0;exitDy=0;exitPerimeter=0;entryX=1;entryY=0.5;entryDx=0;entryDy=0;entryPerimeter=0;strokeColor=default;align=center;verticalAlign=middle;fontFamily=Helvetica;fontSize=11;fontColor=default;labelBackgroundColor=default;endArrow=none;endFill=0;" edge="1" parent="1" source="DSzJjhLjSaE3BOneECKD-91" target="DSzJjhLjSaE3BOneECKD-89">
          <mxGeometry relative="1" as="geometry" />
        </mxCell>
        <mxCell id="DSzJjhLjSaE3BOneECKD-133" style="edgeStyle=orthogonalEdgeStyle;shape=connector;rounded=0;jumpStyle=arc;orthogonalLoop=1;jettySize=auto;html=1;exitX=0;exitY=0.5;exitDx=0;exitDy=0;exitPerimeter=0;strokeColor=default;align=center;verticalAlign=middle;fontFamily=Helvetica;fontSize=11;fontColor=default;labelBackgroundColor=default;endArrow=none;endFill=0;" edge="1" parent="1" source="DSzJjhLjSaE3BOneECKD-129">
          <mxGeometry relative="1" as="geometry">
            <mxPoint x="500" y="340.0000000000001" as="targetPoint" />
            <Array as="points">
              <mxPoint x="600" y="440" />
              <mxPoint x="600" y="370" />
              <mxPoint x="500" y="370" />
            </Array>
          </mxGeometry>
        </mxCell>
        <mxCell id="DSzJjhLjSaE3BOneECKD-129" value="330R" style="pointerEvents=1;verticalLabelPosition=bottom;shadow=0;dashed=0;align=center;html=1;verticalAlign=top;shape=mxgraph.electrical.resistors.resistor_1;fontFamily=Helvetica;fontSize=11;fontColor=default;labelBackgroundColor=none;fillColor=none;rotation=90;" vertex="1" parent="1">
          <mxGeometry x="545" y="455" width="40" height="10" as="geometry" />
        </mxCell>
        <mxCell id="DSzJjhLjSaE3BOneECKD-131" value="10k" style="text;html=1;align=center;verticalAlign=middle;whiteSpace=wrap;rounded=0;fontFamily=Helvetica;fontSize=11;fontColor=default;labelBackgroundColor=default;rotation=90;" vertex="1" parent="1">
          <mxGeometry x="570" y="416" width="20" height="10" as="geometry" />
        </mxCell>
        <mxCell id="DSzJjhLjSaE3BOneECKD-132" style="edgeStyle=orthogonalEdgeStyle;shape=connector;rounded=0;jumpStyle=arc;orthogonalLoop=1;jettySize=auto;html=1;exitX=0.5;exitY=1;exitDx=0;exitDy=0;exitPerimeter=0;entryX=0.904;entryY=1.108;entryDx=0;entryDy=0;entryPerimeter=0;strokeColor=default;align=center;verticalAlign=middle;fontFamily=Helvetica;fontSize=11;fontColor=default;labelBackgroundColor=default;endArrow=none;endFill=0;" edge="1" parent="1" source="DSzJjhLjSaE3BOneECKD-93" target="DSzJjhLjSaE3BOneECKD-67">
          <mxGeometry relative="1" as="geometry" />
        </mxCell>
        <mxCell id="DSzJjhLjSaE3BOneECKD-134" value="" style="ellipse;whiteSpace=wrap;html=1;aspect=fixed;fontFamily=Helvetica;fontSize=11;fontColor=default;labelBackgroundColor=default;fillColor=light-dark(#000000,#FFFFFF);" vertex="1" parent="1">
          <mxGeometry x="458" y="478" width="4" height="4" as="geometry" />
        </mxCell>
        <mxCell id="DSzJjhLjSaE3BOneECKD-135" value="" style="ellipse;whiteSpace=wrap;html=1;aspect=fixed;fontFamily=Helvetica;fontSize=11;fontColor=default;labelBackgroundColor=default;fillColor=light-dark(#000000,#FFFFFF);" vertex="1" parent="1">
          <mxGeometry x="458" y="398" width="4" height="4" as="geometry" />
        </mxCell>
        <mxCell id="DSzJjhLjSaE3BOneECKD-136" value="" style="ellipse;whiteSpace=wrap;html=1;aspect=fixed;fontFamily=Helvetica;fontSize=11;fontColor=default;labelBackgroundColor=default;fillColor=light-dark(#000000,#FFFFFF);" vertex="1" parent="1">
          <mxGeometry x="563" y="478" width="4" height="4" as="geometry" />
        </mxCell>
        <mxCell id="DSzJjhLjSaE3BOneECKD-137" value="" style="ellipse;whiteSpace=wrap;html=1;aspect=fixed;fontFamily=Helvetica;fontSize=11;fontColor=default;labelBackgroundColor=default;fillColor=light-dark(#000000,#FFFFFF);" vertex="1" parent="1">
          <mxGeometry x="563" y="439" width="4" height="4" as="geometry" />
        </mxCell>
        <mxCell id="DSzJjhLjSaE3BOneECKD-138" value="" style="ellipse;whiteSpace=wrap;html=1;aspect=fixed;fontFamily=Helvetica;fontSize=11;fontColor=default;labelBackgroundColor=default;fillColor=light-dark(#000000,#FFFFFF);" vertex="1" parent="1">
          <mxGeometry x="562" y="398" width="4" height="4" as="geometry" />
        </mxCell>
        <mxCell id="DSzJjhLjSaE3BOneECKD-139" value="" style="ellipse;whiteSpace=wrap;html=1;aspect=fixed;fontFamily=Helvetica;fontSize=11;fontColor=default;labelBackgroundColor=default;fillColor=light-dark(#000000,#FFFFFF);" vertex="1" parent="1">
          <mxGeometry x="548" y="398" width="4" height="4" as="geometry" />
        </mxCell>
        <mxCell id="DSzJjhLjSaE3BOneECKD-141" value="" style="ellipse;whiteSpace=wrap;html=1;aspect=fixed;fontFamily=Helvetica;fontSize=11;fontColor=default;labelBackgroundColor=default;fillColor=light-dark(#000000,#FFFFFF);" vertex="1" parent="1">
          <mxGeometry x="628" y="398" width="4" height="4" as="geometry" />
        </mxCell>
        <mxCell id="DSzJjhLjSaE3BOneECKD-142" value="" style="ellipse;whiteSpace=wrap;html=1;aspect=fixed;fontFamily=Helvetica;fontSize=11;fontColor=default;labelBackgroundColor=default;fillColor=light-dark(#000000,#FFFFFF);" vertex="1" parent="1">
          <mxGeometry x="628" y="478" width="4" height="4" as="geometry" />
        </mxCell>
        <mxCell id="DSzJjhLjSaE3BOneECKD-143" value="" style="ellipse;whiteSpace=wrap;html=1;aspect=fixed;fontFamily=Helvetica;fontSize=11;fontColor=default;labelBackgroundColor=default;fillColor=light-dark(#000000,#FFFFFF);" vertex="1" parent="1">
          <mxGeometry x="668" y="478" width="4" height="4" as="geometry" />
        </mxCell>
        <mxCell id="DSzJjhLjSaE3BOneECKD-144" value="" style="ellipse;whiteSpace=wrap;html=1;aspect=fixed;fontFamily=Helvetica;fontSize=11;fontColor=default;labelBackgroundColor=default;fillColor=light-dark(#000000,#FFFFFF);" vertex="1" parent="1">
          <mxGeometry x="668" y="398" width="4" height="4" as="geometry" />
        </mxCell>
        <mxCell id="DSzJjhLjSaE3BOneECKD-145" value="" style="ellipse;whiteSpace=wrap;html=1;aspect=fixed;fontFamily=Helvetica;fontSize=11;fontColor=default;labelBackgroundColor=default;fillColor=light-dark(#000000,#FFFFFF);" vertex="1" parent="1">
          <mxGeometry x="717" y="398" width="4" height="4" as="geometry" />
        </mxCell>
        <mxCell id="DSzJjhLjSaE3BOneECKD-146" value="" style="ellipse;whiteSpace=wrap;html=1;aspect=fixed;fontFamily=Helvetica;fontSize=11;fontColor=default;labelBackgroundColor=default;fillColor=light-dark(#000000,#FFFFFF);" vertex="1" parent="1">
          <mxGeometry x="717" y="478" width="4" height="4" as="geometry" />
        </mxCell>
      </root>
    </mxGraphModel>
  </diagram>
  <diagram id="XhrT0gRRpntRAcRbxVKI" name="Page-2">
    <mxGraphModel dx="2066" dy="1187" grid="1" gridSize="10" guides="1" tooltips="1" connect="1" arrows="1" fold="1" page="1" pageScale="1" pageWidth="850" pageHeight="1100" math="0" shadow="0">
      <root>
        <mxCell id="0" />
        <mxCell id="1" parent="0" />
        <mxCell id="dgf-bULlxgTQCpM5prh4-1" value="" style="rounded=0;html=1;container=0;fillColor=none;" vertex="1" parent="1">
          <mxGeometry x="192" y="282" width="80" height="80" as="geometry" />
        </mxCell>
        <mxCell id="dgf-bULlxgTQCpM5prh4-2" value="" style="endArrow=none;html=1;rounded=0;" edge="1" parent="1">
          <mxGeometry width="50" height="50" relative="1" as="geometry">
            <mxPoint x="182" y="352" as="sourcePoint" />
            <mxPoint x="192" y="352" as="targetPoint" />
          </mxGeometry>
        </mxCell>
        <mxCell id="dgf-bULlxgTQCpM5prh4-3" value="" style="endArrow=none;html=1;rounded=0;" edge="1" parent="1">
          <mxGeometry width="50" height="50" relative="1" as="geometry">
            <mxPoint x="182" y="332" as="sourcePoint" />
            <mxPoint x="192" y="332" as="targetPoint" />
          </mxGeometry>
        </mxCell>
        <mxCell id="dgf-bULlxgTQCpM5prh4-4" value="" style="endArrow=none;html=1;rounded=0;" edge="1" parent="1">
          <mxGeometry width="50" height="50" relative="1" as="geometry">
            <mxPoint x="182" y="312" as="sourcePoint" />
            <mxPoint x="192" y="312" as="targetPoint" />
          </mxGeometry>
        </mxCell>
        <mxCell id="dgf-bULlxgTQCpM5prh4-5" value="" style="endArrow=none;html=1;rounded=0;" edge="1" parent="1">
          <mxGeometry width="50" height="50" relative="1" as="geometry">
            <mxPoint x="182" y="292" as="sourcePoint" />
            <mxPoint x="192" y="292" as="targetPoint" />
          </mxGeometry>
        </mxCell>
        <mxCell id="dgf-bULlxgTQCpM5prh4-6" value="" style="endArrow=none;html=1;rounded=0;" edge="1" parent="1">
          <mxGeometry width="50" height="50" relative="1" as="geometry">
            <mxPoint x="272" y="292" as="sourcePoint" />
            <mxPoint x="282" y="292" as="targetPoint" />
          </mxGeometry>
        </mxCell>
        <mxCell id="dgf-bULlxgTQCpM5prh4-7" value="" style="endArrow=none;html=1;rounded=0;" edge="1" parent="1">
          <mxGeometry width="50" height="50" relative="1" as="geometry">
            <mxPoint x="272" y="312" as="sourcePoint" />
            <mxPoint x="282" y="312" as="targetPoint" />
          </mxGeometry>
        </mxCell>
        <mxCell id="dgf-bULlxgTQCpM5prh4-8" value="" style="endArrow=none;html=1;rounded=0;" edge="1" parent="1">
          <mxGeometry width="50" height="50" relative="1" as="geometry">
            <mxPoint x="272" y="332" as="sourcePoint" />
            <mxPoint x="282" y="332" as="targetPoint" />
          </mxGeometry>
        </mxCell>
        <mxCell id="dgf-bULlxgTQCpM5prh4-9" value="" style="endArrow=none;html=1;rounded=0;" edge="1" parent="1">
          <mxGeometry width="50" height="50" relative="1" as="geometry">
            <mxPoint x="272" y="352" as="sourcePoint" />
            <mxPoint x="282" y="352" as="targetPoint" />
          </mxGeometry>
        </mxCell>
        <mxCell id="dgf-bULlxgTQCpM5prh4-10" value="1 SW" style="text;html=1;align=left;verticalAlign=middle;rounded=0;fontSize=10;labelPosition=right;verticalLabelPosition=middle;container=0;" vertex="1" parent="1">
          <mxGeometry x="192" y="292" as="geometry" />
        </mxCell>
        <mxCell id="dgf-bULlxgTQCpM5prh4-11" value="2 EN" style="text;html=1;align=left;verticalAlign=middle;rounded=0;fontSize=10;labelPosition=right;verticalLabelPosition=middle;container=0;" vertex="1" parent="1">
          <mxGeometry x="192" y="312" as="geometry" />
        </mxCell>
        <mxCell id="dgf-bULlxgTQCpM5prh4-12" value="3 CMP" style="text;html=1;align=left;verticalAlign=middle;rounded=0;fontSize=10;labelPosition=right;verticalLabelPosition=middle;container=0;" vertex="1" parent="1">
          <mxGeometry x="192" y="332" as="geometry" />
        </mxCell>
        <mxCell id="dgf-bULlxgTQCpM5prh4-13" value="4 FB" style="text;html=1;align=left;verticalAlign=middle;rounded=0;fontSize=10;labelPosition=right;verticalLabelPosition=middle;container=0;" vertex="1" parent="1">
          <mxGeometry x="192" y="352" as="geometry" />
        </mxCell>
        <mxCell id="dgf-bULlxgTQCpM5prh4-14" value="" style="edgeStyle=orthogonalEdgeStyle;rounded=0;orthogonalLoop=1;jettySize=auto;html=1;" edge="1" parent="1" source="dgf-bULlxgTQCpM5prh4-15" target="dgf-bULlxgTQCpM5prh4-1">
          <mxGeometry relative="1" as="geometry" />
        </mxCell>
        <mxCell id="dgf-bULlxgTQCpM5prh4-15" value="BST 8" style="text;html=1;align=right;verticalAlign=middle;rounded=0;fontSize=10;labelPosition=left;verticalLabelPosition=middle;container=0;" vertex="1" parent="1">
          <mxGeometry x="272" y="292" as="geometry" />
        </mxCell>
        <mxCell id="dgf-bULlxgTQCpM5prh4-16" value="Vin 7" style="text;html=1;align=right;verticalAlign=middle;rounded=0;fontSize=10;labelPosition=left;verticalLabelPosition=middle;container=0;" vertex="1" parent="1">
          <mxGeometry x="272" y="312" as="geometry" />
        </mxCell>
        <mxCell id="dgf-bULlxgTQCpM5prh4-17" value="FREQ 6" style="text;html=1;align=right;verticalAlign=middle;rounded=0;fontSize=10;labelPosition=left;verticalLabelPosition=middle;container=0;" vertex="1" parent="1">
          <mxGeometry x="272" y="332" as="geometry" />
        </mxCell>
        <mxCell id="dgf-bULlxgTQCpM5prh4-18" value="GND 5" style="text;html=1;align=right;verticalAlign=middle;rounded=0;fontSize=10;labelPosition=left;verticalLabelPosition=middle;container=0;" vertex="1" parent="1">
          <mxGeometry x="272" y="352" as="geometry" />
        </mxCell>
        <mxCell id="dgf-bULlxgTQCpM5prh4-19" value="" style="pointerEvents=1;verticalLabelPosition=bottom;shadow=0;dashed=0;align=center;html=1;verticalAlign=top;shape=mxgraph.electrical.capacitors.capacitor_1;" vertex="1" parent="1">
          <mxGeometry x="192" y="202" width="80" height="20" as="geometry" />
        </mxCell>
        <mxCell id="dgf-bULlxgTQCpM5prh4-20" style="edgeStyle=orthogonalEdgeStyle;rounded=0;orthogonalLoop=1;jettySize=auto;html=1;entryX=0;entryY=0.5;entryDx=0;entryDy=0;entryPerimeter=0;endArrow=none;endFill=0;jumpStyle=arc;" edge="1" parent="1" source="dgf-bULlxgTQCpM5prh4-10" target="dgf-bULlxgTQCpM5prh4-19">
          <mxGeometry relative="1" as="geometry">
            <Array as="points">
              <mxPoint x="182" y="292" />
              <mxPoint x="182" y="212" />
            </Array>
          </mxGeometry>
        </mxCell>
        <mxCell id="dgf-bULlxgTQCpM5prh4-21" style="edgeStyle=orthogonalEdgeStyle;shape=connector;rounded=0;jumpStyle=arc;orthogonalLoop=1;jettySize=auto;html=1;entryX=1;entryY=0.5;entryDx=0;entryDy=0;entryPerimeter=0;strokeColor=default;align=center;verticalAlign=middle;fontFamily=Helvetica;fontSize=11;fontColor=default;labelBackgroundColor=default;endArrow=none;endFill=0;" edge="1" parent="1" source="dgf-bULlxgTQCpM5prh4-15" target="dgf-bULlxgTQCpM5prh4-19">
          <mxGeometry relative="1" as="geometry">
            <Array as="points">
              <mxPoint x="282" y="292" />
              <mxPoint x="282" y="212" />
            </Array>
          </mxGeometry>
        </mxCell>
        <mxCell id="dgf-bULlxgTQCpM5prh4-22" style="edgeStyle=orthogonalEdgeStyle;shape=connector;rounded=0;jumpStyle=arc;orthogonalLoop=1;jettySize=auto;html=1;strokeColor=default;align=center;verticalAlign=middle;fontFamily=Helvetica;fontSize=11;fontColor=default;labelBackgroundColor=default;endArrow=none;endFill=0;" edge="1" parent="1" source="dgf-bULlxgTQCpM5prh4-24">
          <mxGeometry relative="1" as="geometry">
            <mxPoint x="282" y="212" as="targetPoint" />
            <Array as="points">
              <mxPoint x="282" y="202" />
              <mxPoint x="282" y="202" />
            </Array>
          </mxGeometry>
        </mxCell>
        <mxCell id="dgf-bULlxgTQCpM5prh4-23" style="edgeStyle=orthogonalEdgeStyle;shape=connector;rounded=0;jumpStyle=arc;orthogonalLoop=1;jettySize=auto;html=1;strokeColor=default;align=center;verticalAlign=middle;fontFamily=Helvetica;fontSize=11;fontColor=default;labelBackgroundColor=default;endArrow=none;endFill=0;exitX=0;exitY=1;exitDx=0;exitDy=0;exitPerimeter=0;" edge="1" parent="1" source="dgf-bULlxgTQCpM5prh4-24">
          <mxGeometry relative="1" as="geometry">
            <mxPoint x="182" y="332" as="targetPoint" />
            <Array as="points">
              <mxPoint x="172" y="162" />
              <mxPoint x="172" y="332" />
            </Array>
          </mxGeometry>
        </mxCell>
        <mxCell id="dgf-bULlxgTQCpM5prh4-24" value="" style="pointerEvents=1;verticalLabelPosition=bottom;shadow=0;dashed=0;align=center;html=1;verticalAlign=top;shape=mxgraph.electrical.inductors.inductor_3;fontFamily=Helvetica;fontSize=11;fontColor=default;labelBackgroundColor=default;" vertex="1" parent="1">
          <mxGeometry x="182" y="152" width="100" height="10" as="geometry" />
        </mxCell>
        <mxCell id="dgf-bULlxgTQCpM5prh4-25" style="edgeStyle=orthogonalEdgeStyle;shape=connector;rounded=0;jumpStyle=arc;orthogonalLoop=1;jettySize=auto;html=1;strokeColor=default;align=center;verticalAlign=middle;fontFamily=Helvetica;fontSize=11;fontColor=default;labelBackgroundColor=default;endArrow=none;endFill=0;" edge="1" parent="1" source="dgf-bULlxgTQCpM5prh4-26">
          <mxGeometry relative="1" as="geometry">
            <mxPoint x="182" y="312" as="targetPoint" />
          </mxGeometry>
        </mxCell>
        <mxCell id="dgf-bULlxgTQCpM5prh4-26" value="" style="pointerEvents=1;fillColor=strokeColor;verticalLabelPosition=bottom;shadow=0;dashed=0;align=center;html=1;verticalAlign=top;shape=mxgraph.electrical.diodes.schottky_diode;fontFamily=Helvetica;fontSize=11;fontColor=default;labelBackgroundColor=default;" vertex="1" parent="1">
          <mxGeometry x="52" y="292" width="100" height="40" as="geometry" />
        </mxCell>
        <mxCell id="dgf-bULlxgTQCpM5prh4-27" value="" style="pointerEvents=1;verticalLabelPosition=bottom;shadow=0;dashed=0;align=center;html=1;verticalAlign=top;shape=mxgraph.electrical.signal_sources.protective_earth;fontFamily=Helvetica;fontSize=11;fontColor=default;labelBackgroundColor=default;rotation=0;" vertex="1" parent="1">
          <mxGeometry x="40" y="312" width="25" height="20" as="geometry" />
        </mxCell>
        <mxCell id="dgf-bULlxgTQCpM5prh4-28" value="Vin" style="verticalLabelPosition=top;verticalAlign=bottom;shape=mxgraph.electrical.signal_sources.vdd;shadow=0;dashed=0;align=center;strokeWidth=1;fontSize=24;html=1;flipV=1;fontFamily=Helvetica;fontColor=default;labelBackgroundColor=none;rotation=0;fillColor=none;" vertex="1" parent="1">
          <mxGeometry x="373.25" y="272" width="20" height="40" as="geometry" />
        </mxCell>
        <mxCell id="dgf-bULlxgTQCpM5prh4-29" style="edgeStyle=orthogonalEdgeStyle;shape=connector;rounded=0;jumpStyle=arc;orthogonalLoop=1;jettySize=auto;html=1;exitX=0.5;exitY=0;exitDx=0;exitDy=0;exitPerimeter=0;strokeColor=default;align=center;verticalAlign=middle;fontFamily=Helvetica;fontSize=11;fontColor=default;labelBackgroundColor=default;endArrow=none;endFill=0;" edge="1" parent="1" source="dgf-bULlxgTQCpM5prh4-30">
          <mxGeometry relative="1" as="geometry">
            <mxPoint x="182" y="352" as="targetPoint" />
            <Array as="points">
              <mxPoint x="172" y="352" />
            </Array>
          </mxGeometry>
        </mxCell>
        <mxCell id="dgf-bULlxgTQCpM5prh4-30" value="" style="pointerEvents=1;verticalLabelPosition=bottom;shadow=0;dashed=0;align=center;html=1;verticalAlign=top;shape=mxgraph.electrical.signal_sources.protective_earth;fontFamily=Helvetica;fontSize=11;fontColor=default;labelBackgroundColor=default;rotation=0;" vertex="1" parent="1">
          <mxGeometry x="159.5" y="362" width="25" height="20" as="geometry" />
        </mxCell>
        <mxCell id="dgf-bULlxgTQCpM5prh4-31" value="" style="pointerEvents=1;verticalLabelPosition=bottom;shadow=0;dashed=0;align=center;html=1;verticalAlign=top;shape=mxgraph.electrical.capacitors.capacitor_1;" vertex="1" parent="1">
          <mxGeometry x="282" y="322" width="70" height="20" as="geometry" />
        </mxCell>
        <mxCell id="dgf-bULlxgTQCpM5prh4-32" value="" style="pointerEvents=1;verticalLabelPosition=bottom;shadow=0;dashed=0;align=center;html=1;verticalAlign=top;shape=mxgraph.electrical.signal_sources.protective_earth;fontFamily=Helvetica;fontSize=11;fontColor=default;labelBackgroundColor=default;rotation=0;" vertex="1" parent="1">
          <mxGeometry x="370.75" y="332" width="25" height="20" as="geometry" />
        </mxCell>
        <mxCell id="dgf-bULlxgTQCpM5prh4-33" style="edgeStyle=orthogonalEdgeStyle;shape=connector;rounded=0;jumpStyle=arc;orthogonalLoop=1;jettySize=auto;html=1;exitX=0;exitY=0.5;exitDx=0;exitDy=0;exitPerimeter=0;strokeColor=default;align=center;verticalAlign=middle;fontFamily=Helvetica;fontSize=11;fontColor=default;labelBackgroundColor=default;endArrow=none;endFill=0;" edge="1" parent="1" source="dgf-bULlxgTQCpM5prh4-34">
          <mxGeometry relative="1" as="geometry">
            <mxPoint x="282" y="352" as="targetPoint" />
            <Array as="points">
              <mxPoint x="262" y="382" />
              <mxPoint x="282" y="382" />
            </Array>
          </mxGeometry>
        </mxCell>
        <mxCell id="dgf-bULlxgTQCpM5prh4-34" value="51k" style="pointerEvents=1;verticalLabelPosition=bottom;shadow=0;dashed=0;align=center;html=1;verticalAlign=top;shape=mxgraph.electrical.resistors.resistor_1;fontFamily=Helvetica;fontSize=11;fontColor=default;labelBackgroundColor=none;fillColor=none;" vertex="1" parent="1">
          <mxGeometry x="262" y="402" width="50" height="10" as="geometry" />
        </mxCell>
        <mxCell id="dgf-bULlxgTQCpM5prh4-35" style="edgeStyle=orthogonalEdgeStyle;shape=connector;rounded=0;jumpStyle=arc;orthogonalLoop=1;jettySize=auto;html=1;entryX=0;entryY=0.5;entryDx=0;entryDy=0;entryPerimeter=0;strokeColor=default;align=center;verticalAlign=middle;fontFamily=Helvetica;fontSize=11;fontColor=default;labelBackgroundColor=default;endArrow=none;endFill=0;exitX=1;exitY=0.5;exitDx=0;exitDy=0;exitPerimeter=0;" edge="1" parent="1" source="dgf-bULlxgTQCpM5prh4-34" target="dgf-bULlxgTQCpM5prh4-31">
          <mxGeometry relative="1" as="geometry">
            <Array as="points">
              <mxPoint x="312" y="382" />
              <mxPoint x="292" y="382" />
              <mxPoint x="292" y="332" />
            </Array>
          </mxGeometry>
        </mxCell>
        <mxCell id="dgf-bULlxgTQCpM5prh4-36" value="" style="pointerEvents=1;verticalLabelPosition=bottom;shadow=0;dashed=0;align=center;html=1;verticalAlign=top;shape=mxgraph.electrical.capacitors.capacitor_1;" vertex="1" parent="1">
          <mxGeometry x="262" y="442" width="50" height="20" as="geometry" />
        </mxCell>
        <mxCell id="dgf-bULlxgTQCpM5prh4-37" style="edgeStyle=orthogonalEdgeStyle;shape=connector;rounded=0;jumpStyle=arc;orthogonalLoop=1;jettySize=auto;html=1;exitX=1;exitY=0.5;exitDx=0;exitDy=0;exitPerimeter=0;entryX=1;entryY=0.5;entryDx=0;entryDy=0;entryPerimeter=0;strokeColor=default;align=center;verticalAlign=middle;fontFamily=Helvetica;fontSize=11;fontColor=default;labelBackgroundColor=default;endArrow=none;endFill=0;" edge="1" parent="1" source="dgf-bULlxgTQCpM5prh4-34" target="dgf-bULlxgTQCpM5prh4-36">
          <mxGeometry relative="1" as="geometry">
            <Array as="points">
              <mxPoint x="312" y="432" />
              <mxPoint x="312" y="432" />
            </Array>
          </mxGeometry>
        </mxCell>
        <mxCell id="dgf-bULlxgTQCpM5prh4-38" style="edgeStyle=orthogonalEdgeStyle;shape=connector;rounded=0;jumpStyle=arc;orthogonalLoop=1;jettySize=auto;html=1;exitX=0;exitY=0.5;exitDx=0;exitDy=0;exitPerimeter=0;entryX=0;entryY=0.5;entryDx=0;entryDy=0;entryPerimeter=0;strokeColor=default;align=center;verticalAlign=middle;fontFamily=Helvetica;fontSize=11;fontColor=default;labelBackgroundColor=default;endArrow=none;endFill=0;" edge="1" parent="1" source="dgf-bULlxgTQCpM5prh4-36" target="dgf-bULlxgTQCpM5prh4-34">
          <mxGeometry relative="1" as="geometry">
            <Array as="points">
              <mxPoint x="262" y="432" />
              <mxPoint x="262" y="432" />
            </Array>
          </mxGeometry>
        </mxCell>
        <mxCell id="dgf-bULlxgTQCpM5prh4-39" value="" style="pointerEvents=1;verticalLabelPosition=bottom;shadow=0;dashed=0;align=center;html=1;verticalAlign=top;shape=mxgraph.electrical.resistors.resistor_1;fontFamily=Helvetica;fontSize=11;fontColor=default;labelBackgroundColor=none;fillColor=none;" vertex="1" parent="1">
          <mxGeometry x="282" y="307" width="50" height="10" as="geometry" />
        </mxCell>
        <mxCell id="dgf-bULlxgTQCpM5prh4-40" value="0R05" style="text;html=1;align=center;verticalAlign=middle;whiteSpace=wrap;rounded=0;fontFamily=Helvetica;fontSize=11;fontColor=default;labelBackgroundColor=none;" vertex="1" parent="1">
          <mxGeometry x="277" y="282" width="60" height="30" as="geometry" />
        </mxCell>
        <mxCell id="dgf-bULlxgTQCpM5prh4-41" value="Vin" style="verticalLabelPosition=top;verticalAlign=bottom;shape=mxgraph.electrical.signal_sources.vdd;shadow=0;dashed=0;align=center;strokeWidth=1;fontSize=24;html=1;flipV=1;fontFamily=Helvetica;fontColor=default;labelBackgroundColor=none;rotation=0;" vertex="1" parent="1">
          <mxGeometry x="313.25" y="132" width="20" height="40" as="geometry" />
        </mxCell>
        <mxCell id="dgf-bULlxgTQCpM5prh4-42" value="Vout" style="verticalLabelPosition=top;verticalAlign=bottom;shape=mxgraph.electrical.signal_sources.vdd;shadow=0;dashed=0;align=center;strokeWidth=1;fontSize=24;html=1;flipV=1;fontFamily=Helvetica;fontColor=default;labelBackgroundColor=none;rotation=0;" vertex="1" parent="1">
          <mxGeometry x="353.25" y="132" width="20" height="40" as="geometry" />
        </mxCell>
        <mxCell id="dgf-bULlxgTQCpM5prh4-43" value="" style="pointerEvents=1;verticalLabelPosition=bottom;shadow=0;dashed=0;align=center;html=1;verticalAlign=top;shape=mxgraph.electrical.signal_sources.protective_earth;fontFamily=Helvetica;fontSize=11;fontColor=default;labelBackgroundColor=default;rotation=0;" vertex="1" parent="1">
          <mxGeometry x="333.25" y="242" width="25" height="20" as="geometry" />
        </mxCell>
        <mxCell id="dgf-bULlxgTQCpM5prh4-44" value="" style="pointerEvents=1;verticalLabelPosition=bottom;shadow=0;dashed=0;align=center;html=1;verticalAlign=top;shape=mxgraph.electrical.capacitors.capacitor_1;rotation=90;" vertex="1" parent="1">
          <mxGeometry x="283.25" y="192" width="80" height="20" as="geometry" />
        </mxCell>
        <mxCell id="dgf-bULlxgTQCpM5prh4-45" value="" style="pointerEvents=1;verticalLabelPosition=bottom;shadow=0;dashed=0;align=center;html=1;verticalAlign=top;shape=mxgraph.electrical.capacitors.capacitor_1;rotation=90;" vertex="1" parent="1">
          <mxGeometry x="323.25" y="192" width="80" height="20" as="geometry" />
        </mxCell>
        <mxCell id="dgf-bULlxgTQCpM5prh4-46" style="edgeStyle=orthogonalEdgeStyle;shape=connector;rounded=0;jumpStyle=arc;orthogonalLoop=1;jettySize=auto;html=1;exitX=1;exitY=0.5;exitDx=0;exitDy=0;exitPerimeter=0;entryX=1;entryY=0.5;entryDx=0;entryDy=0;entryPerimeter=0;strokeColor=default;align=center;verticalAlign=middle;fontFamily=Helvetica;fontSize=11;fontColor=default;labelBackgroundColor=default;endArrow=none;endFill=0;" edge="1" parent="1" source="dgf-bULlxgTQCpM5prh4-44" target="dgf-bULlxgTQCpM5prh4-45">
          <mxGeometry relative="1" as="geometry">
            <Array as="points">
              <mxPoint x="353.25" y="242" />
              <mxPoint x="353.25" y="242" />
            </Array>
          </mxGeometry>
        </mxCell>
        <mxCell id="dgf-bULlxgTQCpM5prh4-47" value="Vin" style="verticalLabelPosition=top;verticalAlign=bottom;shape=mxgraph.electrical.signal_sources.vdd;shadow=0;dashed=0;align=center;strokeWidth=1;fontSize=24;html=1;flipV=1;fontFamily=Helvetica;fontColor=default;labelBackgroundColor=none;rotation=0;fillColor=none;" vertex="1" parent="1">
          <mxGeometry x="142" y="272" width="20" height="40" as="geometry" />
        </mxCell>
        <mxCell id="dgf-bULlxgTQCpM5prh4-48" value="Vout" style="verticalLabelPosition=top;verticalAlign=bottom;shape=mxgraph.electrical.signal_sources.vdd;shadow=0;dashed=0;align=center;strokeWidth=1;fontSize=24;html=1;flipV=1;fontFamily=Helvetica;fontColor=default;labelBackgroundColor=none;rotation=0;fillColor=none;" vertex="1" parent="1">
          <mxGeometry x="337" y="412" width="20" height="40" as="geometry" />
        </mxCell>
        <mxCell id="dgf-bULlxgTQCpM5prh4-49" value="" style="pointerEvents=1;verticalLabelPosition=bottom;shadow=0;dashed=0;align=center;html=1;verticalAlign=top;shape=mxgraph.electrical.resistors.potentiometer_1;fontFamily=Helvetica;fontSize=11;fontColor=default;labelBackgroundColor=none;fillColor=none;" vertex="1" parent="1">
          <mxGeometry x="260.75" y="482" width="100" height="40" as="geometry" />
        </mxCell>
        <mxCell id="dgf-bULlxgTQCpM5prh4-50" style="edgeStyle=orthogonalEdgeStyle;shape=connector;rounded=0;jumpStyle=arc;orthogonalLoop=1;jettySize=auto;html=1;exitX=0.5;exitY=1;exitDx=0;exitDy=0;exitPerimeter=0;entryX=1;entryY=0.25;entryDx=0;entryDy=0;entryPerimeter=0;strokeColor=default;align=center;verticalAlign=middle;fontFamily=Helvetica;fontSize=11;fontColor=default;labelBackgroundColor=default;endArrow=none;endFill=0;" edge="1" parent="1" source="dgf-bULlxgTQCpM5prh4-49" target="dgf-bULlxgTQCpM5prh4-49">
          <mxGeometry relative="1" as="geometry">
            <Array as="points">
              <mxPoint x="311" y="542" />
              <mxPoint x="372" y="542" />
              <mxPoint x="372" y="492" />
            </Array>
          </mxGeometry>
        </mxCell>
        <mxCell id="dgf-bULlxgTQCpM5prh4-51" value="" style="pointerEvents=1;verticalLabelPosition=bottom;shadow=0;dashed=0;align=center;html=1;verticalAlign=top;shape=mxgraph.electrical.signal_sources.protective_earth;fontFamily=Helvetica;fontSize=11;fontColor=default;labelBackgroundColor=default;rotation=0;" vertex="1" parent="1">
          <mxGeometry x="360.75" y="541" width="23.75" height="20" as="geometry" />
        </mxCell>
        <mxCell id="dgf-bULlxgTQCpM5prh4-52" style="edgeStyle=orthogonalEdgeStyle;shape=connector;rounded=0;jumpStyle=arc;orthogonalLoop=1;jettySize=auto;html=1;exitX=0;exitY=0.5;exitDx=0;exitDy=0;exitPerimeter=0;entryX=0;entryY=0.25;entryDx=0;entryDy=0;entryPerimeter=0;strokeColor=default;align=center;verticalAlign=middle;fontFamily=Helvetica;fontSize=11;fontColor=default;labelBackgroundColor=default;endArrow=none;endFill=0;" edge="1" parent="1" source="dgf-bULlxgTQCpM5prh4-36" target="dgf-bULlxgTQCpM5prh4-49">
          <mxGeometry relative="1" as="geometry">
            <Array as="points">
              <mxPoint x="262" y="492" />
            </Array>
          </mxGeometry>
        </mxCell>
        <mxCell id="dgf-bULlxgTQCpM5prh4-53" value="MP1584" style="text;html=1;align=center;verticalAlign=middle;whiteSpace=wrap;rounded=0;fontFamily=Helvetica;fontSize=11;fontColor=default;labelBackgroundColor=none;" vertex="1" parent="1">
          <mxGeometry x="202" y="252" width="60" height="30" as="geometry" />
        </mxCell>
        <mxCell id="dgf-bULlxgTQCpM5prh4-54" style="edgeStyle=orthogonalEdgeStyle;shape=connector;rounded=0;jumpStyle=arc;orthogonalLoop=1;jettySize=auto;html=1;exitX=1;exitY=0.5;exitDx=0;exitDy=0;exitPerimeter=0;entryX=0.5;entryY=0;entryDx=0;entryDy=0;entryPerimeter=0;strokeColor=default;align=center;verticalAlign=middle;fontFamily=Helvetica;fontSize=11;fontColor=default;labelBackgroundColor=default;endArrow=none;endFill=0;" edge="1" parent="1" source="dgf-bULlxgTQCpM5prh4-39" target="dgf-bULlxgTQCpM5prh4-28">
          <mxGeometry relative="1" as="geometry">
            <Array as="points">
              <mxPoint x="372" y="312" />
              <mxPoint x="372" y="312" />
            </Array>
          </mxGeometry>
        </mxCell>
        <mxCell id="dgf-bULlxgTQCpM5prh4-55" style="edgeStyle=orthogonalEdgeStyle;shape=connector;rounded=0;jumpStyle=arc;orthogonalLoop=1;jettySize=auto;html=1;exitX=1;exitY=0.5;exitDx=0;exitDy=0;exitPerimeter=0;entryX=0.5;entryY=0;entryDx=0;entryDy=0;entryPerimeter=0;strokeColor=default;align=center;verticalAlign=middle;fontFamily=Helvetica;fontSize=11;fontColor=default;labelBackgroundColor=default;endArrow=none;endFill=0;" edge="1" parent="1" source="dgf-bULlxgTQCpM5prh4-31" target="dgf-bULlxgTQCpM5prh4-32">
          <mxGeometry relative="1" as="geometry" />
        </mxCell>
        <mxCell id="dgf-bULlxgTQCpM5prh4-56" style="edgeStyle=orthogonalEdgeStyle;shape=connector;rounded=0;jumpStyle=arc;orthogonalLoop=1;jettySize=auto;html=1;exitX=0.5;exitY=0;exitDx=0;exitDy=0;exitPerimeter=0;entryX=1;entryY=0.5;entryDx=0;entryDy=0;entryPerimeter=0;strokeColor=default;align=center;verticalAlign=middle;fontFamily=Helvetica;fontSize=11;fontColor=default;labelBackgroundColor=default;endArrow=none;endFill=0;" edge="1" parent="1" source="dgf-bULlxgTQCpM5prh4-48" target="dgf-bULlxgTQCpM5prh4-36">
          <mxGeometry relative="1" as="geometry" />
        </mxCell>
        <mxCell id="dgf-bULlxgTQCpM5prh4-57" value="Vout" style="verticalLabelPosition=top;verticalAlign=bottom;shape=mxgraph.electrical.signal_sources.vdd;shadow=0;dashed=0;align=center;strokeWidth=1;fontSize=24;html=1;flipV=1;fontFamily=Helvetica;fontColor=default;labelBackgroundColor=none;rotation=0;" vertex="1" parent="1">
          <mxGeometry x="162" y="122" width="20" height="40" as="geometry" />
        </mxCell>
        <mxCell id="dgf-bULlxgTQCpM5prh4-58" value="" style="ellipse;whiteSpace=wrap;html=1;aspect=fixed;fontFamily=Helvetica;fontSize=11;fontColor=default;labelBackgroundColor=default;fillColor=light-dark(#000000,#FFFFFF);" vertex="1" parent="1">
          <mxGeometry x="290" y="330" width="4" height="4" as="geometry" />
        </mxCell>
        <mxCell id="dgf-bULlxgTQCpM5prh4-59" value="" style="ellipse;whiteSpace=wrap;html=1;aspect=fixed;fontFamily=Helvetica;fontSize=11;fontColor=default;labelBackgroundColor=default;fillColor=light-dark(#000000,#FFFFFF);" vertex="1" parent="1">
          <mxGeometry x="310" y="405" width="4" height="4" as="geometry" />
        </mxCell>
        <mxCell id="dgf-bULlxgTQCpM5prh4-60" value="" style="ellipse;whiteSpace=wrap;html=1;aspect=fixed;fontFamily=Helvetica;fontSize=11;fontColor=default;labelBackgroundColor=default;fillColor=light-dark(#000000,#FFFFFF);" vertex="1" parent="1">
          <mxGeometry x="260" y="405" width="4" height="4" as="geometry" />
        </mxCell>
        <mxCell id="dgf-bULlxgTQCpM5prh4-61" value="" style="ellipse;whiteSpace=wrap;html=1;aspect=fixed;fontFamily=Helvetica;fontSize=11;fontColor=default;labelBackgroundColor=default;fillColor=light-dark(#000000,#FFFFFF);" vertex="1" parent="1">
          <mxGeometry x="260" y="450" width="4" height="4" as="geometry" />
        </mxCell>
        <mxCell id="dgf-bULlxgTQCpM5prh4-62" value="" style="ellipse;whiteSpace=wrap;html=1;aspect=fixed;fontFamily=Helvetica;fontSize=11;fontColor=default;labelBackgroundColor=default;fillColor=light-dark(#000000,#FFFFFF);" vertex="1" parent="1">
          <mxGeometry x="310" y="451" width="4" height="4" as="geometry" />
        </mxCell>
        <mxCell id="dgf-bULlxgTQCpM5prh4-63" value="" style="ellipse;whiteSpace=wrap;html=1;aspect=fixed;fontFamily=Helvetica;fontSize=11;fontColor=default;labelBackgroundColor=default;fillColor=light-dark(#000000,#FFFFFF);" vertex="1" parent="1">
          <mxGeometry x="370" y="539" width="4" height="4" as="geometry" />
        </mxCell>
        <mxCell id="dgf-bULlxgTQCpM5prh4-64" value="" style="ellipse;whiteSpace=wrap;html=1;aspect=fixed;fontFamily=Helvetica;fontSize=11;fontColor=default;labelBackgroundColor=default;fillColor=light-dark(#000000,#FFFFFF);" vertex="1" parent="1">
          <mxGeometry x="150" y="310" width="4" height="4" as="geometry" />
        </mxCell>
        <mxCell id="dgf-bULlxgTQCpM5prh4-65" value="" style="ellipse;whiteSpace=wrap;html=1;aspect=fixed;fontFamily=Helvetica;fontSize=11;fontColor=default;labelBackgroundColor=default;fillColor=light-dark(#000000,#FFFFFF);" vertex="1" parent="1">
          <mxGeometry x="171" y="160" width="4" height="4" as="geometry" />
        </mxCell>
        <mxCell id="dgf-bULlxgTQCpM5prh4-66" value="" style="ellipse;whiteSpace=wrap;html=1;aspect=fixed;fontFamily=Helvetica;fontSize=11;fontColor=default;labelBackgroundColor=default;fillColor=light-dark(#000000,#FFFFFF);" vertex="1" parent="1">
          <mxGeometry x="280" y="210" width="4" height="4" as="geometry" />
        </mxCell>
        <mxCell id="dgf-bULlxgTQCpM5prh4-67" value="Text" style="text;html=1;align=center;verticalAlign=middle;resizable=0;points=[];autosize=1;strokeColor=none;fillColor=none;fontFamily=Helvetica;fontSize=11;fontColor=default;labelBackgroundColor=default;" vertex="1" parent="1">
          <mxGeometry x="342" y="40" width="40" height="30" as="geometry" />
        </mxCell>
      </root>
    </mxGraphModel>
  </diagram>
</mxfile>
